# xmcd
#
# Track frame offsets: 
#        150
#        14600
#        24548
#        44660
#        57438
#        85120
#        100263
#        124278
#        150830
#        167875
#        183293
#        201083
#        221723
#        232128
#
# Disc length: 3253 seconds
#
# Revision: 0
# Processed by: cddbd v1.4PL0 Copyright (c) Steve Scherf et al.
# Submitted via: ExactAudioCopy v0.95a3
#
DISCID=c20cb30e
DTITLE=Glen Campbell - Live At The Dome
DYEAR=1991
DGENRE=Blues
TTITLE0=Rhinestone Cowboy
TTITLE1=Gentle On My Mind
TTITLE2=Medley
TTITLE3=By The Time I Get To Pheonix
TTITLE4=Mull Of Kintyre
TTITLE5=Crying
TTITLE6=Blue Grass Medley
TTITLE7=Milk Sow Blues
TTITLE8=Rollin' (In My Sweet Baby's Arms)
TTITLE9=I'm So Lonesome I Could Cry
TTITLE10=Southern Nights
TTITLE11=Amazing Grace
TTITLE12=Try A Little Kindness
TTITLE13=It's Only Make Believe
EXTD=
EXTT0=
EXTT1=
EXTT2=
EXTT3=
EXTT4=
EXTT5=
EXTT6=
EXTT7=
EXTT8=
EXTT9=
EXTT10=
EXTT11=
EXTT12=
EXTT13=
PLAYORDER=
